<mxfile host="Electron" modified="2023-10-09T19:24:36.092Z" agent="Mozilla/5.0 (Windows NT 10.0; Win64; x64) AppleWebKit/537.36 (KHTML, like Gecko) draw.io/21.8.2 Chrome/114.0.5735.289 Electron/25.8.1 Safari/537.36" etag="GNa5q7K6JJsr2VvO_Pst" version="21.8.2" type="device">
  <diagram name="Страница — 1" id="7UE2A7HSNBAqHp71a8jM">
    <mxGraphModel dx="1932" dy="654" grid="1" gridSize="10" guides="1" tooltips="1" connect="1" arrows="1" fold="1" page="1" pageScale="1" pageWidth="827" pageHeight="1169" math="0" shadow="0">
      <root>
        <mxCell id="0" />
        <mxCell id="1" parent="0" />
        <mxCell id="EHb3gEEFBTN-kzqpUxrS-1" value="Пользователь" style="shape=umlActor;verticalLabelPosition=bottom;verticalAlign=top;html=1;outlineConnect=0;" parent="1" vertex="1">
          <mxGeometry x="120" y="300" width="30" height="60" as="geometry" />
        </mxCell>
        <mxCell id="EHb3gEEFBTN-kzqpUxrS-2" value="Администратор" style="shape=umlActor;verticalLabelPosition=bottom;verticalAlign=top;html=1;outlineConnect=0;" parent="1" vertex="1">
          <mxGeometry x="120" y="410" width="30" height="60" as="geometry" />
        </mxCell>
        <mxCell id="EHb3gEEFBTN-kzqpUxrS-3" value="" style="endArrow=none;html=1;rounded=0;" parent="1" edge="1">
          <mxGeometry width="50" height="50" relative="1" as="geometry">
            <mxPoint x="200" y="640" as="sourcePoint" />
            <mxPoint x="200" y="240" as="targetPoint" />
          </mxGeometry>
        </mxCell>
        <mxCell id="-Bt9bZGNbB4cdx8Ea_nu-1" value="Аутентификация" style="ellipse;whiteSpace=wrap;html=1;" vertex="1" parent="1">
          <mxGeometry x="250" y="370" width="120" height="50" as="geometry" />
        </mxCell>
        <mxCell id="-Bt9bZGNbB4cdx8Ea_nu-3" value="Создание задач" style="ellipse;whiteSpace=wrap;html=1;" vertex="1" parent="1">
          <mxGeometry x="380" y="240" width="120" height="50" as="geometry" />
        </mxCell>
        <mxCell id="-Bt9bZGNbB4cdx8Ea_nu-5" value="Выдача задачи пользователю" style="ellipse;whiteSpace=wrap;html=1;" vertex="1" parent="1">
          <mxGeometry x="380" y="520" width="120" height="50" as="geometry" />
        </mxCell>
        <mxCell id="-Bt9bZGNbB4cdx8Ea_nu-6" value="Редактирование прав пользователей" style="ellipse;whiteSpace=wrap;html=1;" vertex="1" parent="1">
          <mxGeometry x="430" y="460" width="120" height="50" as="geometry" />
        </mxCell>
        <mxCell id="-Bt9bZGNbB4cdx8Ea_nu-7" value="Редактирование профиля" style="ellipse;whiteSpace=wrap;html=1;" vertex="1" parent="1">
          <mxGeometry x="400" y="400" width="120" height="50" as="geometry" />
        </mxCell>
        <mxCell id="-Bt9bZGNbB4cdx8Ea_nu-8" value="Добавление комментариев" style="ellipse;whiteSpace=wrap;html=1;" vertex="1" parent="1">
          <mxGeometry x="700" y="300" width="120" height="50" as="geometry" />
        </mxCell>
        <mxCell id="-Bt9bZGNbB4cdx8Ea_nu-9" value="Блокировка задач" style="ellipse;whiteSpace=wrap;html=1;" vertex="1" parent="1">
          <mxGeometry x="250" y="550" width="120" height="50" as="geometry" />
        </mxCell>
        <mxCell id="-Bt9bZGNbB4cdx8Ea_nu-10" value="Получение задач" style="ellipse;whiteSpace=wrap;html=1;" vertex="1" parent="1">
          <mxGeometry x="390" y="320" width="120" height="50" as="geometry" />
        </mxCell>
        <mxCell id="-Bt9bZGNbB4cdx8Ea_nu-11" value="Получение задачи" style="ellipse;whiteSpace=wrap;html=1;" vertex="1" parent="1">
          <mxGeometry x="550" y="270" width="120" height="50" as="geometry" />
        </mxCell>
        <mxCell id="-Bt9bZGNbB4cdx8Ea_nu-12" value="" style="endArrow=classic;html=1;rounded=0;fillColor=#60a917;strokeColor=#2D7600;" edge="1" parent="1" source="EHb3gEEFBTN-kzqpUxrS-2" target="-Bt9bZGNbB4cdx8Ea_nu-1">
          <mxGeometry width="50" height="50" relative="1" as="geometry">
            <mxPoint x="410" y="430" as="sourcePoint" />
            <mxPoint x="460" y="380" as="targetPoint" />
          </mxGeometry>
        </mxCell>
        <mxCell id="-Bt9bZGNbB4cdx8Ea_nu-13" value="" style="endArrow=classic;html=1;rounded=0;entryX=0.085;entryY=0.199;entryDx=0;entryDy=0;entryPerimeter=0;" edge="1" parent="1" source="EHb3gEEFBTN-kzqpUxrS-1" target="-Bt9bZGNbB4cdx8Ea_nu-1">
          <mxGeometry width="50" height="50" relative="1" as="geometry">
            <mxPoint x="410" y="430" as="sourcePoint" />
            <mxPoint x="460" y="380" as="targetPoint" />
          </mxGeometry>
        </mxCell>
        <mxCell id="-Bt9bZGNbB4cdx8Ea_nu-14" value="" style="endArrow=classic;html=1;rounded=0;entryX=0;entryY=0.5;entryDx=0;entryDy=0;" edge="1" parent="1" source="-Bt9bZGNbB4cdx8Ea_nu-1" target="-Bt9bZGNbB4cdx8Ea_nu-10">
          <mxGeometry width="50" height="50" relative="1" as="geometry">
            <mxPoint x="500" y="440" as="sourcePoint" />
            <mxPoint x="550" y="390" as="targetPoint" />
          </mxGeometry>
        </mxCell>
        <mxCell id="-Bt9bZGNbB4cdx8Ea_nu-15" value="" style="endArrow=classic;html=1;rounded=0;entryX=0;entryY=1;entryDx=0;entryDy=0;" edge="1" parent="1" source="-Bt9bZGNbB4cdx8Ea_nu-1" target="-Bt9bZGNbB4cdx8Ea_nu-3">
          <mxGeometry width="50" height="50" relative="1" as="geometry">
            <mxPoint x="500" y="440" as="sourcePoint" />
            <mxPoint x="550" y="390" as="targetPoint" />
          </mxGeometry>
        </mxCell>
        <mxCell id="-Bt9bZGNbB4cdx8Ea_nu-16" value="" style="endArrow=classic;html=1;rounded=0;exitX=1;exitY=0.5;exitDx=0;exitDy=0;entryX=0;entryY=0.5;entryDx=0;entryDy=0;" edge="1" parent="1" source="-Bt9bZGNbB4cdx8Ea_nu-10" target="-Bt9bZGNbB4cdx8Ea_nu-11">
          <mxGeometry width="50" height="50" relative="1" as="geometry">
            <mxPoint x="500" y="440" as="sourcePoint" />
            <mxPoint x="550" y="390" as="targetPoint" />
          </mxGeometry>
        </mxCell>
        <mxCell id="-Bt9bZGNbB4cdx8Ea_nu-17" value="" style="endArrow=classic;html=1;rounded=0;exitX=1;exitY=0.5;exitDx=0;exitDy=0;entryX=0;entryY=0.5;entryDx=0;entryDy=0;" edge="1" parent="1" source="-Bt9bZGNbB4cdx8Ea_nu-3" target="-Bt9bZGNbB4cdx8Ea_nu-11">
          <mxGeometry width="50" height="50" relative="1" as="geometry">
            <mxPoint x="500" y="440" as="sourcePoint" />
            <mxPoint x="550" y="390" as="targetPoint" />
          </mxGeometry>
        </mxCell>
        <mxCell id="-Bt9bZGNbB4cdx8Ea_nu-18" value="" style="endArrow=classic;html=1;rounded=0;exitX=1;exitY=0.5;exitDx=0;exitDy=0;entryX=0;entryY=0.5;entryDx=0;entryDy=0;" edge="1" parent="1" source="-Bt9bZGNbB4cdx8Ea_nu-1" target="-Bt9bZGNbB4cdx8Ea_nu-7">
          <mxGeometry width="50" height="50" relative="1" as="geometry">
            <mxPoint x="500" y="440" as="sourcePoint" />
            <mxPoint x="550" y="390" as="targetPoint" />
          </mxGeometry>
        </mxCell>
        <mxCell id="-Bt9bZGNbB4cdx8Ea_nu-19" value="" style="endArrow=classic;html=1;rounded=0;entryX=0;entryY=0.5;entryDx=0;entryDy=0;exitX=1;exitY=0.5;exitDx=0;exitDy=0;" edge="1" parent="1" source="-Bt9bZGNbB4cdx8Ea_nu-11" target="-Bt9bZGNbB4cdx8Ea_nu-8">
          <mxGeometry width="50" height="50" relative="1" as="geometry">
            <mxPoint x="500" y="440" as="sourcePoint" />
            <mxPoint x="550" y="390" as="targetPoint" />
          </mxGeometry>
        </mxCell>
        <mxCell id="-Bt9bZGNbB4cdx8Ea_nu-20" value="Редактирование задачи" style="ellipse;whiteSpace=wrap;html=1;" vertex="1" parent="1">
          <mxGeometry x="700" y="230" width="120" height="50" as="geometry" />
        </mxCell>
        <mxCell id="-Bt9bZGNbB4cdx8Ea_nu-21" value="" style="endArrow=classic;html=1;rounded=0;exitX=1;exitY=0.5;exitDx=0;exitDy=0;entryX=0;entryY=0.5;entryDx=0;entryDy=0;" edge="1" parent="1" source="-Bt9bZGNbB4cdx8Ea_nu-11" target="-Bt9bZGNbB4cdx8Ea_nu-20">
          <mxGeometry width="50" height="50" relative="1" as="geometry">
            <mxPoint x="530" y="440" as="sourcePoint" />
            <mxPoint x="580" y="390" as="targetPoint" />
          </mxGeometry>
        </mxCell>
        <mxCell id="-Bt9bZGNbB4cdx8Ea_nu-22" value="" style="endArrow=classic;html=1;rounded=0;exitX=0.5;exitY=1;exitDx=0;exitDy=0;entryX=0;entryY=0.5;entryDx=0;entryDy=0;fillColor=#60a917;strokeColor=#2D7600;" edge="1" parent="1" source="-Bt9bZGNbB4cdx8Ea_nu-1" target="-Bt9bZGNbB4cdx8Ea_nu-6">
          <mxGeometry width="50" height="50" relative="1" as="geometry">
            <mxPoint x="410" y="460" as="sourcePoint" />
            <mxPoint x="460" y="410" as="targetPoint" />
          </mxGeometry>
        </mxCell>
        <mxCell id="-Bt9bZGNbB4cdx8Ea_nu-23" value="" style="endArrow=classic;html=1;rounded=0;exitX=0.5;exitY=1;exitDx=0;exitDy=0;entryX=0;entryY=0.5;entryDx=0;entryDy=0;fillColor=#60a917;strokeColor=#2D7600;" edge="1" parent="1" source="-Bt9bZGNbB4cdx8Ea_nu-1" target="-Bt9bZGNbB4cdx8Ea_nu-5">
          <mxGeometry width="50" height="50" relative="1" as="geometry">
            <mxPoint x="410" y="530" as="sourcePoint" />
            <mxPoint x="460" y="480" as="targetPoint" />
          </mxGeometry>
        </mxCell>
        <mxCell id="-Bt9bZGNbB4cdx8Ea_nu-24" value="" style="endArrow=classic;html=1;rounded=0;exitX=0.5;exitY=1;exitDx=0;exitDy=0;entryX=0.5;entryY=0;entryDx=0;entryDy=0;fillColor=#60a917;strokeColor=#2D7600;" edge="1" parent="1" source="-Bt9bZGNbB4cdx8Ea_nu-1" target="-Bt9bZGNbB4cdx8Ea_nu-9">
          <mxGeometry width="50" height="50" relative="1" as="geometry">
            <mxPoint x="410" y="530" as="sourcePoint" />
            <mxPoint x="460" y="480" as="targetPoint" />
          </mxGeometry>
        </mxCell>
        <mxCell id="-Bt9bZGNbB4cdx8Ea_nu-25" value="Доступно всем пользователям" style="text;html=1;strokeColor=none;fillColor=none;align=center;verticalAlign=middle;whiteSpace=wrap;rounded=0;" vertex="1" parent="1">
          <mxGeometry x="-40" y="250" width="120" height="30" as="geometry" />
        </mxCell>
        <mxCell id="-Bt9bZGNbB4cdx8Ea_nu-26" value="Доступно администратору" style="text;html=1;strokeColor=#2D7600;fillColor=#60a917;align=center;verticalAlign=middle;whiteSpace=wrap;rounded=0;fontColor=#ffffff;" vertex="1" parent="1">
          <mxGeometry x="-40" y="280" width="120" height="30" as="geometry" />
        </mxCell>
      </root>
    </mxGraphModel>
  </diagram>
</mxfile>
